<svg width="305" height="289" viewBox="0 0 305 289" fill="none" xmlns="http://www.w3.org/2000/svg">
<circle cx="150.369" cy="164.521" r="118.526" fill="url(#paint0_linear_1_26724)"/>
<circle cx="292.777" cy="57.4939" r="11.4988" fill="url(#paint1_linear_1_26724)"/>
<ellipse cx="18.575" cy="17.6905" rx="18.575" ry="17.6905" fill="url(#paint2_linear_1_26724)"/>
<circle cx="9.72976" cy="241.475" r="9.72976" fill="url(#paint3_linear_1_26724)"/>
<circle cx="271.549" cy="283.932" r="4.42262" fill="url(#paint4_linear_1_26724)"/>
<path d="M141.564 196.573C139.05 196.573 136.536 195.496 135.1 193.341L114.991 167.487C112.119 163.896 112.837 158.869 116.428 155.996C120.018 153.124 125.046 153.842 127.918 157.433L141.564 175.028L171.727 135.888C174.599 132.297 179.627 131.579 183.217 134.451C186.808 137.324 187.527 142.351 184.654 145.942L148.027 193.341C146.232 195.137 144.077 196.573 141.564 196.573Z" fill="white"/>
<circle cx="200.787" cy="183.096" r="4.42262" fill="white"/>
<circle cx="84.9142" cy="134.448" r="7.07619" fill="white"/>
<circle cx="188.403" cy="96.4128" r="2.65357" fill="white"/>
<circle cx="114.988" cy="221.131" r="3.53809" fill="white"/>
<circle cx="153.907" cy="136.217" r="1.76905" fill="white"/>
<defs>
<linearGradient id="paint0_linear_1_26724" x1="31.8428" y1="31.4393" x2="305.497" y2="73.838" gradientUnits="userSpaceOnUse">
<stop stop-color="#FE7551"/>
<stop offset="0.0001" stop-color="#FE7551"/>
<stop offset="0.998399" stop-color="#E36E4F"/>
</linearGradient>
<linearGradient id="paint1_linear_1_26724" x1="281.278" y1="44.583" x2="307.827" y2="48.6963" gradientUnits="userSpaceOnUse">
<stop stop-color="#FE7551"/>
<stop offset="1" stop-color="#E36E4F"/>
</linearGradient>
<linearGradient id="paint2_linear_1_26724" x1="-5.26806e-08" y1="-2.17251" x2="42.7833" y2="4.78757" gradientUnits="userSpaceOnUse">
<stop stop-color="#FE7551"/>
<stop offset="1" stop-color="#E36E4F"/>
</linearGradient>
<linearGradient id="paint3_linear_1_26724" x1="-2.75946e-08" y1="230.55" x2="22.4642" y2="234.031" gradientUnits="userSpaceOnUse">
<stop stop-color="#FE7551"/>
<stop offset="1" stop-color="#E36E4F"/>
</linearGradient>
<linearGradient id="paint4_linear_1_26724" x1="267.126" y1="278.966" x2="277.337" y2="280.548" gradientUnits="userSpaceOnUse">
<stop stop-color="#FE7551"/>
<stop offset="1" stop-color="#E36E4F"/>
</linearGradient>
</defs>
</svg>
